<svg viewBox="0 0 251 48" xmlns="http://www.w3.org/2000/svg" xmlns:xlink="http://www.w3.org/1999/xlink" stroke-linejoin="round" stroke-miterlimit="2" fill-rule="evenodd" clip-rule="evenodd" xml:space="preserve" overflow="hidden"><g><rect x="104.31" y="7.19" width="22.32" height="3.14" fill="#A1A6AE"/><rect x="104.31" y="14.86" width="22.32" height="3.14" fill="#A1A6AE"/><rect x="104.31" y="22.53" width="22.32" height="3.14" fill="#A1A6AE"/><rect x="104.31" y="30.19" width="22.32" height="3.14" fill="#A1A6AE"/><rect x="104.31" y="37.86" width="22.32" height="3.14" fill="#A1A6AE"/><path d="M7.25 7.27 7.25 13.14 16.05 13.14 16.05 40.99 22.64 40.99 22.64 13.14 31.44 13.14 31.44 7.27 7.25 7.27Z" fill="#0563A5" fill-rule="nonzero"/><path d="M56.02 7.27 56.02 27.92 42.67 7.27 36.79 7.27 36.79 40.99 43.38 40.99 43.38 20.29 56.73 40.99 62.6 40.99 62.6 7.27 56.02 7.27Z" fill="#0563A5" fill-rule="nonzero"/><path d="M91.25 37.43C88.65 40.08 85.52 41.27 81.73 41.27 78.13 41.27 75.1 40.04 72.64 37.58 71.17 36.11 70.27 34.4 69.89 32.51 69.51 30.62 69.32 27.82 69.32 24.13 69.32 20.44 69.51 17.64 69.89 15.75 70.27 13.81 71.17 12.15 72.64 10.69 75.11 8.23 78.14 7 81.73 7 89.4 7 93.52 11.92 94.42 17.8L87.79 17.8C86.99 14.53 85 12.88 81.73 12.88 79.98 12.88 78.56 13.5 77.52 14.68 76.29 16.24 75.91 17.48 75.91 24.15 75.91 30.78 76.19 32.11 77.52 33.67 78.51 34.85 79.93 35.42 81.73 35.42 83.67 35.42 85.24 34.8 86.42 33.53 87.41 32.39 87.93 30.88 87.93 29.03L87.93 27.75 83.18 27.75 83.18 22.26 94.46 22.26 94.46 27.18C94.47 32.09 93.57 34.97 91.25 37.43" fill="#0563A5" fill-rule="nonzero"/><path d="M140.17 8.87 140.17 19.46 138.32 19.46 138.32 8.87 134.94 8.87 134.94 7.2 143.55 7.2 143.55 8.87 140.17 8.87Z" fill="#0563A5" fill-rule="nonzero"/><path d="M145.66 19.46 145.66 7.2 153.5 7.2 153.5 8.87 147.52 8.87 147.52 12.45 152.62 12.45 152.62 14.11 147.52 14.11 147.52 17.79 153.5 17.79 153.5 19.46 145.66 19.46Z" fill="#0563A5" fill-rule="nonzero"/><path d="M160 19.56C158.73 19.56 157.62 19.1 156.78 18.25 155.58 17.04 155.59 15.69 155.59 13.33 155.59 10.97 155.57 9.61 156.78 8.41 157.62 7.56 158.73 7.1 160 7.1 162.26 7.1 163.94 8.43 164.37 10.87L162.47 10.87C162.18 9.63 161.35 8.77 159.99 8.77 159.27 8.77 158.61 9.04 158.18 9.51 157.58 10.16 157.44 10.87 157.44 13.33 157.44 15.79 157.58 16.5 158.18 17.15 158.61 17.61 159.27 17.89 159.99 17.89 161.35 17.89 162.19 17.03 162.49 15.79L164.37 15.79C163.97 18.24 162.22 19.56 160 19.56" fill="#0563A5" fill-rule="nonzero"/><path d="M173.69 19.46 173.69 14.11 168.72 14.11 168.72 19.46 166.86 19.46 166.86 7.2 168.72 7.2 168.72 12.44 173.69 12.44 173.69 7.2 175.55 7.2 175.55 19.46 173.69 19.46Z" fill="#0563A5" fill-rule="nonzero"/><path d="M186.28 19.46 180.61 10.83 180.61 19.46 178.76 19.46 178.76 7.2 180.46 7.2 186.12 15.81 186.12 7.2 187.98 7.2 187.98 19.46 186.28 19.46Z" fill="#0563A5" fill-rule="nonzero"/><path d="M198.38 18.25C197.53 19.09 196.45 19.56 195.14 19.56 193.84 19.56 192.77 19.1 191.92 18.25 190.71 17.05 190.73 15.69 190.73 13.33 190.73 10.97 190.71 9.61 191.92 8.41 192.77 7.56 193.83 7.1 195.14 7.1 196.45 7.1 197.53 7.57 198.38 8.41 199.59 9.61 199.55 10.97 199.55 13.33 199.55 15.69 199.59 17.05 198.38 18.25M196.97 9.53C196.54 9.07 195.87 8.77 195.14 8.77 194.42 8.77 193.75 9.06 193.32 9.53 192.72 10.18 192.6 10.87 192.6 13.34 192.6 15.81 192.72 16.49 193.32 17.14 193.75 17.61 194.42 17.9 195.14 17.9 195.86 17.9 196.54 17.61 196.97 17.14 197.57 16.49 197.69 15.8 197.69 13.34 197.69 10.88 197.57 10.18 196.97 9.53" fill="#0563A5" fill-rule="nonzero"/><path d="M202.3 19.46 202.3 7.2 204.16 7.2 204.16 17.79 210.07 17.79 210.07 19.46 202.3 19.46Z" fill="#0563A5" fill-rule="nonzero"/><path d="M218.93 18.25C218.09 19.09 217 19.56 215.69 19.56 214.38 19.56 213.31 19.1 212.47 18.25 211.26 17.05 211.28 15.69 211.28 13.33 211.28 10.97 211.26 9.61 212.47 8.41 213.31 7.56 214.38 7.1 215.69 7.1 217 7.1 218.08 7.57 218.93 8.41 220.14 9.61 220.1 10.97 220.1 13.33 220.1 15.69 220.14 17.05 218.93 18.25M217.52 9.53C217.09 9.07 216.42 8.77 215.69 8.77 214.96 8.77 214.29 9.06 213.87 9.53 213.26 10.18 213.14 10.87 213.14 13.34 213.14 15.81 213.26 16.49 213.87 17.14 214.3 17.61 214.97 17.9 215.69 17.9 216.41 17.9 217.09 17.61 217.52 17.14 218.12 16.49 218.24 15.8 218.24 13.34 218.24 10.88 218.13 10.18 217.52 9.53" fill="#0563A5" fill-rule="nonzero"/><path d="M230.19 18.17C229.26 19.15 228.11 19.56 226.82 19.56 225.54 19.56 224.44 19.1 223.6 18.25 222.4 17.05 222.41 15.69 222.41 13.33 222.41 10.97 222.4 9.61 223.6 8.41 224.45 7.56 225.51 7.1 226.82 7.1 229.42 7.1 230.93 8.8 231.28 10.91L229.41 10.91C229.1 9.57 228.2 8.78 226.82 8.78 226.1 8.78 225.44 9.07 225.01 9.53 224.4 10.18 224.26 10.87 224.26 13.34 224.26 15.8 224.4 16.51 225.01 17.16 225.44 17.62 226.09 17.9 226.82 17.9 227.63 17.9 228.33 17.59 228.82 17.04 229.27 16.52 229.44 15.9 229.44 15.11L229.44 14.42 226.82 14.42 226.82 12.84 231.29 12.84 231.29 14.72C231.29 16.29 231 17.31 230.19 18.17" fill="#0563A5" fill-rule="nonzero"/><path d="M237.87 14.41 237.87 19.46 236.01 19.46 236.01 14.41 232.34 7.2 234.37 7.2 236.94 12.59 239.51 7.2 241.53 7.2 237.87 14.41Z" fill="#0563A5" fill-rule="nonzero"/><path d="M139.98 41.08C138.71 41.08 137.6 40.62 136.76 39.77 135.56 38.57 135.57 37.21 135.57 34.85 135.57 32.49 135.55 31.13 136.76 29.93 137.6 29.09 138.71 28.62 139.98 28.62 142.24 28.62 143.93 29.95 144.35 32.39L142.46 32.39C142.16 31.15 141.34 30.29 139.98 30.29 139.26 30.29 138.61 30.57 138.17 31.03 137.57 31.68 137.43 32.39 137.43 34.85 137.43 37.31 137.57 38.02 138.17 38.67 138.6 39.13 139.26 39.41 139.98 39.41 141.34 39.41 142.18 38.55 142.48 37.31L144.35 37.31C143.94 39.76 142.2 41.08 139.98 41.08" fill="#0563A5" fill-rule="nonzero"/><path d="M154.55 39.77C153.7 40.61 152.62 41.08 151.31 41.08 150 41.08 148.94 40.62 148.09 39.77 146.89 38.57 146.9 37.21 146.9 34.85 146.9 32.49 146.88 31.13 148.09 29.93 148.94 29.09 150 28.62 151.31 28.62 152.62 28.62 153.7 29.09 154.55 29.93 155.75 31.13 155.72 32.49 155.72 34.85 155.72 37.21 155.76 38.57 154.55 39.77M153.14 31.05C152.71 30.59 152.03 30.29 151.31 30.29 150.59 30.29 149.92 30.58 149.49 31.05 148.88 31.7 148.77 32.39 148.77 34.85 148.77 37.31 148.89 38 149.49 38.65 149.92 39.12 150.59 39.41 151.31 39.41 152.03 39.41 152.71 39.12 153.14 38.65 153.74 37.99 153.86 37.31 153.86 34.85 153.86 32.39 153.74 31.7 153.14 31.05" fill="#0563A5" fill-rule="nonzero"/><path d="M166.52 40.98 160.85 32.35 160.85 40.98 158.99 40.98 158.99 28.72 160.69 28.72 166.36 37.33 166.36 28.72 168.22 28.72 168.22 40.98 166.52 40.98Z" fill="#0563A5" fill-rule="nonzero"/><path d="M175.19 41.08C173.35 41.08 172.02 40.65 170.85 39.46L172.09 38.24C172.99 39.13 173.96 39.41 175.22 39.41 176.82 39.41 177.75 38.72 177.75 37.54 177.75 37 177.59 36.56 177.27 36.26 176.96 35.97 176.65 35.85 175.92 35.74L174.47 35.53C173.47 35.39 172.68 35.05 172.15 34.55 171.54 33.98 171.25 33.21 171.25 32.21 171.25 30.07 172.8 28.61 175.34 28.61 176.96 28.61 178.1 29.02 179.15 30.01L177.96 31.18C177.2 30.46 176.33 30.24 175.29 30.24 173.84 30.24 173.05 31.06 173.05 32.15 173.05 32.6 173.19 32.99 173.52 33.29 173.83 33.56 174.33 33.77 174.9 33.86L176.3 34.06C177.43 34.23 178.07 34.51 178.59 34.97 179.26 35.55 179.59 36.43 179.59 37.48 179.6 39.74 177.75 41.08 175.19 41.08" fill="#0563A5" fill-rule="nonzero"/><path d="M186.81 41.08C184.31 41.08 182.42 39.38 182.42 36.84L182.42 28.72 184.28 28.72 184.28 36.76C184.28 38.4 185.27 39.41 186.81 39.41 188.34 39.41 189.36 38.39 189.36 36.76L189.36 28.72 191.22 28.72 191.22 36.84C191.21 39.38 189.31 41.08 186.81 41.08" fill="#0563A5" fill-rule="nonzero"/><path d="M194.75 40.98 194.75 28.72 196.61 28.72 196.61 39.31 202.51 39.31 202.51 40.98 194.75 40.98Z" fill="#0563A5" fill-rule="nonzero"/><path d="M207.91 30.39 207.91 40.98 206.05 40.98 206.05 30.39 202.68 30.39 202.68 28.72 211.29 28.72 211.29 30.39 207.91 30.39Z" fill="#0563A5" fill-rule="nonzero"/><rect x="213.92" y="28.72" width="1.86" height="12.26" fill="#0563A5"/><path d="M227.02 40.98 221.36 32.35 221.36 40.98 219.5 40.98 219.5 28.72 221.21 28.72 226.87 37.33 226.87 28.72 228.73 28.72 228.73 40.98 227.02 40.98Z" fill="#0563A5" fill-rule="nonzero"/><path d="M239.78 39.69C238.85 40.67 237.7 41.08 236.41 41.08 235.13 41.08 234.03 40.61 233.19 39.77 231.98 38.57 232 37.21 232 34.85 232 32.49 231.98 31.13 233.19 29.93 234.03 29.09 235.1 28.62 236.41 28.62 239.01 28.62 240.52 30.32 240.87 32.43L239 32.43C238.69 31.09 237.8 30.3 236.42 30.3 235.69 30.3 235.04 30.59 234.61 31.06 234.01 31.71 233.87 32.4 233.87 34.87 233.87 37.33 234.01 38.04 234.61 38.69 235.04 39.15 235.69 39.43 236.42 39.43 237.23 39.43 237.94 39.12 238.42 38.57 238.87 38.05 239.04 37.43 239.04 36.64L239.04 35.95 236.43 35.95 236.43 34.36 240.9 34.36 240.9 36.24C240.88 37.81 240.59 38.83 239.78 39.69" fill="#0563A5" fill-rule="nonzero"/></g></svg>